<svg width="140" height="29" viewBox="0 0 140 29" fill="none" xmlns="http://www.w3.org/2000/svg">
<path d="M77.998 19.3962C80.0467 19.3962 81.7074 21.057 81.7074 23.1056V28.0515H77.998V19.3962Z" fill="white"/>
<path d="M4.81153 7.55011C4.81153 8.32985 5.13484 8.99547 5.78145 9.52798C6.44707 10.0795 7.18877 10.5359 8.0636 10.9163C8.9194 11.3157 9.9844 11.696 11.2776 12.0574C12.5518 12.4187 13.826 12.8181 15.1002 13.2745C16.3744 13.7309 17.5345 14.2634 18.5805 14.91C19.6265 15.5567 20.4823 16.3364 21.1099 17.2873C21.7375 18.2382 22.0227 19.3793 21.9847 20.7485C21.9467 22.1559 21.5283 23.4301 20.7485 24.5521C19.9498 25.6742 18.7897 26.549 17.2302 27.1766C15.6517 27.8042 13.7119 28.0895 11.3537 28.0514C9.56601 27.9944 8.02556 27.7471 6.77038 27.3097C5.49618 26.8913 4.45019 26.3588 3.59439 25.7312C2.7576 25.1036 2.09197 24.457 1.5975 23.7914C1.08402 23.1258 0.722681 22.5172 0.475448 21.9657C0.228215 21.4332 0.0760717 21.0338 0 20.7676L3.65144 19.7976C3.86064 20.5013 4.26001 21.1669 4.81153 21.8326C5.38207 22.4792 6.21886 23.0307 7.35993 23.4871C8.50101 23.9245 10.0605 24.1908 12.0193 24.2478C12.4187 24.2669 13.0843 24.2098 14.0162 24.0577C14.9671 23.9055 15.8609 23.6202 16.6977 23.2019C17.5535 22.7835 18.029 22.1939 18.1241 21.3952C18.1621 20.3302 17.8388 19.4553 17.1161 18.7707C16.4125 18.1051 15.4806 17.5345 14.2825 17.0781C13.1033 16.6217 11.8101 16.2033 10.4218 15.8229C9.18565 15.4616 8.08261 15.0812 7.1127 14.6628C6.12377 14.2444 5.15385 13.7309 4.18394 13.1224C3.19501 12.5138 2.43429 11.7531 1.84474 10.8402C1.2742 9.92735 1.00795 8.78628 1.04599 7.436C1.08402 6.02868 1.50242 4.75448 2.30117 3.6134C3.09992 2.45331 4.16492 1.55947 5.51519 0.893842C6.86547 0.247233 8.72922 -0.0570537 11.1065 0.0190179C12.4948 0.0570537 13.9972 0.380358 15.5947 0.969914C17.2112 1.57849 18.4854 2.43429 19.4363 3.4993C20.3872 4.58332 21.1099 5.87654 21.5853 7.37895L17.9339 8.34886C17.7247 7.60717 17.3253 6.88448 16.7738 6.19984C16.2033 5.49618 15.3094 4.92564 14.0542 4.46921C12.7991 4.01278 11.5629 3.76555 10.3457 3.76555C8.65315 3.76555 7.34091 4.12689 6.371 4.83055C5.40109 5.53421 4.8876 6.44707 4.81153 7.55011Z" fill="white"/>
<path d="M44.5034 17.8008C44.5034 17.9339 44.5034 18.067 44.5034 18.2001V28.0514H40.7379V25.7312C39.844 26.4539 38.8551 27.0245 37.7521 27.4238C36.649 27.8422 35.4889 28.0324 34.2718 28.0324C32.389 28.0324 30.6774 27.576 29.137 26.6631C27.5775 25.7312 26.3413 24.4951 25.4285 22.9546C24.4966 21.3952 24.0402 19.6835 24.0402 17.8008C24.0402 15.918 24.4966 14.2064 25.4285 12.6659C26.3413 11.1065 27.5775 9.8703 29.137 8.95744C30.6774 8.02556 32.389 7.56913 34.2718 7.56913C35.4889 7.56913 36.649 7.77833 37.7521 8.1777C38.8361 8.57708 39.844 9.14762 40.7189 9.8703V7.55011H44.4844L44.5034 17.4014C44.5034 17.5345 44.5034 17.6676 44.5034 17.8008ZM40.7189 18.1431V17.4775C40.6048 15.7278 39.9201 14.2634 38.703 13.1033C37.4668 11.9242 36.0024 11.3347 34.2718 11.3347C32.4841 11.3347 30.9627 11.9813 29.7075 13.2365C28.4333 14.5107 27.8057 16.0321 27.8057 17.8008C27.8057 19.5885 28.4333 21.1099 29.7075 22.3841C30.9627 23.6393 32.4841 24.2669 34.2718 24.2669C36.0024 24.2669 37.4858 23.6773 38.703 22.5172C39.9201 21.3381 40.6048 19.8927 40.7189 18.1431Z" fill="white"/>
<path d="M66.813 7.60717L66.832 18.4093C66.832 19.3412 66.6228 20.3492 66.1854 21.4712C65.767 22.5743 65.1014 23.6393 64.2265 24.6472C63.3517 25.6361 62.2297 26.4729 60.8794 27.1005C59.5101 27.7471 57.9126 28.0704 56.0488 28.0895C54.4133 28.0704 52.8538 27.614 51.3894 26.7202C49.9251 25.8263 48.746 24.6472 47.8141 23.1638C46.8822 21.6614 46.4068 20.0068 46.3877 18.2001L46.3687 7.60717H50.1152C50.1152 7.60717 50.1343 7.93047 50.1343 8.57708C50.1533 9.22369 50.1533 10.0224 50.1723 10.9543C50.1723 11.9052 50.1723 12.8561 50.1723 13.826C50.1723 14.7769 50.1533 15.6137 50.1343 16.2984C50.0962 18.1431 50.4005 19.6455 51.0281 20.8436C51.6557 22.0227 52.4544 22.8976 53.4624 23.4681C54.4513 24.0386 55.4783 24.3049 56.5623 24.2859C57.6654 24.2669 58.7304 24.0006 59.7573 23.4681C60.7843 22.9546 61.6021 22.1178 62.2487 20.9958C62.8763 19.8737 63.1615 18.4093 63.0664 16.6026V7.60717H66.813Z" fill="white"/>
<path d="M78.3774 7.55011C80.2411 7.56913 81.8387 7.91145 83.2079 8.53904C84.5582 9.18565 85.6803 10.0034 86.5551 11.0114C87.4299 12.0193 88.0955 13.0653 88.5139 14.1874C88.9513 15.2904 89.1605 16.3174 89.1605 17.2492L89.1415 28.0514H85.395V19.056C85.4901 17.2492 85.2048 15.7849 84.5772 14.6628C83.9306 13.5408 83.1129 12.704 82.0859 12.1715C81.0589 11.658 79.9939 11.3727 78.8909 11.3727C77.3694 11.3347 75.9811 11.8672 74.726 12.9702C73.4518 14.0923 72.7101 15.8039 72.4818 18.1621V20.197C72.5009 21.0528 72.5009 21.9847 72.5009 23.0117C72.5009 24.0577 72.4818 25.0086 72.4818 25.8644V28.0514H68.6973V27.9944L68.7163 17.4584C68.7163 17.3634 68.7163 17.2873 68.7163 17.1922L68.7353 7.55011L72.5009 7.56913V9.79423C74.2695 8.34886 76.2284 7.60717 78.3774 7.55011Z" fill="white"/>
<path d="M102.779 28.0134C102.684 28.0134 102.589 28.0134 102.494 28.0134C101.086 28.0134 99.8882 27.9373 98.8802 27.7662C97.8913 27.595 96.9024 27.1956 95.9324 26.568C94.9625 25.9595 94.2969 24.9515 93.9736 23.5632C93.6883 22.2319 93.5552 20.178 93.5362 17.3824C93.5362 14.5867 93.5552 12.5708 93.5932 11.3537H91.0258V7.56913H93.5552C93.5362 4.98269 93.5362 2.45331 93.5552 0H97.3778L97.3968 7.56913H101.619V11.3537H97.4158C97.3588 14.4346 97.3588 17.8008 97.4158 21.4522C97.4349 23.4871 99.2225 24.4 102.779 24.2478V28.0134Z" fill="white"/>
<path d="M125.069 18.5615H121.285L108.448 18.5425C108.676 20.178 109.361 21.5473 110.54 22.6123C111.738 23.6773 113.164 24.2478 114.876 24.2859C116.074 24.2669 117.386 24.0386 118.774 23.6012C120.182 23.1828 121.304 22.6313 122.198 22.0037H122.217L124.252 24.9895C122.578 26.1496 121 26.9484 119.535 27.4048C118.071 27.8612 116.511 28.0704 114.857 28.0514C112.099 27.9944 109.76 27.0625 107.877 25.2748C105.975 23.5061 104.91 21.243 104.663 18.5234C104.644 18.2952 104.644 18.067 104.644 17.8198C104.644 16.7358 104.815 15.7278 105.12 14.7389C105.804 12.6279 107.021 10.9353 108.771 9.62306C110.521 8.31083 112.556 7.6452 114.876 7.60717C117.196 7.6452 119.231 8.31083 120.981 9.62306C122.711 10.9353 123.928 12.6469 124.632 14.7579C124.936 15.7278 125.088 16.7548 125.088 17.8388C125.088 18.067 125.088 18.3143 125.069 18.5615ZM109.608 14.3775L120.943 14.3966C120.391 13.3696 119.611 12.5518 118.622 11.9432C117.633 11.3347 116.511 11.0304 115.275 11.0114C114.039 11.0114 112.917 11.3347 111.928 11.9432C110.939 12.5518 110.159 13.3696 109.608 14.3775Z" fill="white"/>
<path d="M130.776 9.10958C131.974 8.42494 133.344 7.98752 134.922 7.79734C136.501 7.60717 138.193 7.51208 140 7.51208V11.1635C137.832 11.1445 136.082 11.2586 134.732 11.4868C133.401 11.715 132.412 12.2475 131.784 13.0653C131.138 13.9021 130.814 15.1953 130.795 16.964L130.757 24.381V28.0895H126.973V17.7437C126.973 17.4204 126.973 17.1161 126.992 16.8309L127.011 7.60717H130.776V9.10958Z" fill="white"/>
</svg>
